<svg t="1709107313604" viewBox="0 0 1024 1024" version="1.1" xmlns="http://www.w3.org/2000/svg" p-id="1119" width="200" height="200"><path d="M16.13 443.742L953.475 2.096a26.152 26.152 0 0 1 27.22 4.352 26.395 26.395 0 0 1 8.361 26.323L685.083 965.04a26.28 26.28 0 0 1-42.236 13.823l-182.426-152.52a26.152 26.152 0 0 0-35.325 1.664l-93.603 93.815a26.152 26.152 0 0 1-44.71-18.558V704.967c0-6.997 2.73-13.695 7.68-18.644L768.83 215.581 225.732 642.594a26.152 26.152 0 0 1-32.509-0.853L9.474 488.154a26.366 26.366 0 0 1 6.656-44.369z" fill="#FFFFFF" p-id="1120"></path></svg>